<svg xmlns="http://www.w3.org/2000/svg" viewBox="0 0 12 16"><defs><style>.cls-1{fill:#fff;}</style></defs><title>footer-padlock</title><g id="Layer_2" data-name="Layer 2"><g id="Layer_1-2" data-name="Layer 1"><path id="Path_7" data-name="Path 7" class="cls-1" d="M11.14,6.46h-.3V5a4.92,4.92,0,0,0-4.7-5H5.86a4.91,4.91,0,0,0-4.7,5V6.46H.86A1,1,0,0,0,0,7.57v7.32A1,1,0,0,0,.86,16H11.14A1,1,0,0,0,12,14.89V7.57A1,1,0,0,0,11.14,6.46ZM7,11.22v2.21a.46.46,0,0,1-.45.47h-1A.46.46,0,0,1,5,13.43V11.22a1.29,1.29,0,0,1-.38-1A1.3,1.3,0,0,1,5.85,8.94h.29A1.35,1.35,0,0,1,7,11.22ZM8.84,6.46H3.16V5A2.91,2.91,0,0,1,6,2.06,2.91,2.91,0,0,1,8.84,5V6.46Z"/></g></g></svg>