<svg xmlns="http://www.w3.org/2000/svg" viewBox="0 0 16 16"><defs><style>.cls-1{fill:#fff;}</style></defs><title>footer-lemon</title><g id="Layer_2" data-name="Layer 2"><g id="Layer_1-2" data-name="Layer 1"><path id="Path_5" data-name="Path 5" class="cls-1" d="M15.64,6.93a7.19,7.19,0,0,0,0-2.36,5.31,5.31,0,0,0,.31-1A3,3,0,0,0,12.48.05l-1,.31a7.07,7.07,0,0,0-2.34,0,9.75,9.75,0,0,0-5.6,3A10.29,10.29,0,0,0,.36,9.08a6.68,6.68,0,0,0,0,2.36,5.11,5.11,0,0,0-.31,1,3,3,0,0,0,.82,2.66A3,3,0,0,0,3.52,16l1-.3a7,7,0,0,0,2.24.1,9.93,9.93,0,0,0,5.7-3.08A10.14,10.14,0,0,0,15.64,6.93Z"/></g></g></svg>