<svg xmlns="http://www.w3.org/2000/svg" width="10.668" height="10.668" viewBox="0 0 10.668 10.668"><path d="M-5.334-4.032a5.7,5.7,0,0,1,.42-2.24,4.937,4.937,0,0,1,1.141-1.68A4.937,4.937,0,0,1-2.079-9,5.885,5.885,0,0,1,0-9.366,5.828,5.828,0,0,1,2.072-9a5.026,5.026,0,0,1,1.694,1.05,4.888,4.888,0,0,1,1.148,1.68,5.7,5.7,0,0,1,.42,2.24,5.7,5.7,0,0,1-.42,2.24A4.888,4.888,0,0,1,3.766-.112,5.026,5.026,0,0,1,2.072.938,5.828,5.828,0,0,1,0,1.3,6.276,6.276,0,0,1-2.2.938a4.708,4.708,0,0,1-1.68-1.05,4.608,4.608,0,0,1-1.078-1.68A6.264,6.264,0,0,1-5.334-4.032Zm1.148,0a4.778,4.778,0,0,0,.322,1.813,3.764,3.764,0,0,0,.889,1.33,3.813,3.813,0,0,0,1.33.819A4.738,4.738,0,0,0,0,.21,4.738,4.738,0,0,0,1.645-.07a3.813,3.813,0,0,0,1.33-.819,3.764,3.764,0,0,0,.889-1.33,4.778,4.778,0,0,0,.322-1.813,4.778,4.778,0,0,0-.322-1.813,3.764,3.764,0,0,0-.889-1.33,3.813,3.813,0,0,0-1.33-.819A4.738,4.738,0,0,0,0-8.274a4.738,4.738,0,0,0-1.645.28,3.813,3.813,0,0,0-1.33.819,3.764,3.764,0,0,0-.889,1.33A4.778,4.778,0,0,0-4.186-4.032ZM1.764-1.6a2.987,2.987,0,0,1-.784.308,4.229,4.229,0,0,1-1.022.112A2.269,2.269,0,0,1-1.9-1.946a3.173,3.173,0,0,1-.637-2.086,3.021,3.021,0,0,1,.679-2.114A2.338,2.338,0,0,1-.042-6.888a3.922,3.922,0,0,1,.5.028,2.811,2.811,0,0,1,.413.084,3.751,3.751,0,0,1,.385.133q.189.077.413.175L1.26-5.5a3.218,3.218,0,0,0-.6-.224,2.1,2.1,0,0,0-.5-.07,1.332,1.332,0,0,0-.973.378A1.93,1.93,0,0,0-1.2-4.032,2.036,2.036,0,0,0-.833-2.737a1.317,1.317,0,0,0,1.1.469,2.668,2.668,0,0,0,.644-.07,2.289,2.289,0,0,0,.518-.2Z" transform="translate(5.334 9.366)" fill="#fff"/></svg>