<svg xmlns="http://www.w3.org/2000/svg" width="10.063" height="9.994" viewBox="0 0 10.063 9.994"><path d="M9.838,4.327a4.422,4.422,0,0,0,0-1.474,2.948,2.948,0,0,0,.192-.641A1.863,1.863,0,0,0,7.851.033L7.21.226a4.358,4.358,0,0,0-1.474,0A6.152,6.152,0,0,0,2.212,2.084,6.472,6.472,0,0,0,.226,5.672a4.229,4.229,0,0,0,0,1.474,2.884,2.884,0,0,0-.192.641A1.858,1.858,0,0,0,.546,9.453a1.922,1.922,0,0,0,1.666.513l.641-.192a4.358,4.358,0,0,0,1.41.064A6.28,6.28,0,0,0,7.851,7.915,6.344,6.344,0,0,0,9.838,4.327Z" fill="#fff"/></svg>