<svg xmlns="http://www.w3.org/2000/svg" width="10.012" height="13.026" viewBox="0 0 10.012 13.026"><path d="M-411.386,5.26h-.254V4.072A4.05,4.05,0,0,0-415.562,0c-.06,0-.179,0-.238,0a4.05,4.05,0,0,0-3.923,4.072V5.26h-.254a.824.824,0,0,0-.71.9V12.12a.828.828,0,0,0,.71.905h8.591a.828.828,0,0,0,.71-.905V6.162A.824.824,0,0,0-411.386,5.26Zm-3.491,3.875v1.8a.384.384,0,0,1-.379.381h-.852a.384.384,0,0,1-.379-.381v-1.8a1.071,1.071,0,0,1-.317-.771,1.074,1.074,0,0,1,1-1.084c.06,0,.179,0,.238,0a1.074,1.074,0,0,1,1,1.084A1.071,1.071,0,0,1-414.876,9.135Zm1.564-3.875h-4.738V4.072a2.389,2.389,0,0,1,2.369-2.391,2.39,2.39,0,0,1,2.369,2.391V5.26Z" transform="translate(420.687)" fill="#fff"/></svg>