<svg xmlns="http://www.w3.org/2000/svg" viewBox="0 0 88.82 74.69"><defs><style>.cls-1{fill:#fff;}</style></defs><title>Asset 1</title><g id="Layer_2" data-name="Layer 2"><g id="Layer_1-2" data-name="Layer 1"><path class="cls-1" d="M.34,15.43A29.91,29.91,0,0,1,1,10.83c.41-2.2.67-3.59.76-4.17L.5,4.21a10.54,10.54,0,0,1,5-1.65A1.75,1.75,0,0,1,7,3.25a10.78,10.78,0,0,1,3.5-.66,5.75,5.75,0,0,1,4.63,1.93,7.18,7.18,0,0,1,1.65,4.82,10.35,10.35,0,0,1-2.8,7,9.72,9.72,0,0,1-3.56,2.47,12.05,12.05,0,0,1-4.72.94,6.16,6.16,0,0,1-3.92-1.11A3.86,3.86,0,0,1,.34,15.43Zm4.86.87a5.85,5.85,0,0,0,1.07.09,4.65,4.65,0,0,0,3.9-1.79,7,7,0,0,0,1.39-4.43,5.46,5.46,0,0,0-1-3.39A3.27,3.27,0,0,0,7.83,5.52a7.42,7.42,0,0,0-.91.09c-.11.78-.39,2.51-.84,5.21S5.33,15.34,5.2,16.3Z"/><path class="cls-1" d="M24.32,19.74a6.74,6.74,0,0,1-4.85-1.63,5.8,5.8,0,0,1-1.7-4.39,7.7,7.7,0,0,1,2.53-6,9,9,0,0,1,6.35-2.3,4.77,4.77,0,0,1,3.23,1A3.15,3.15,0,0,1,31,8.88a4.17,4.17,0,0,1-2.07,3.54c-1.38.94-3.52,1.42-6.4,1.43a4.16,4.16,0,0,0,.66,2.3,1.77,1.77,0,0,0,1.49.84,2.22,2.22,0,0,0,1.55-.6,2.52,2.52,0,0,0,.65-1.94c2.23,0,3.34.52,3.34,1.58a3.24,3.24,0,0,1-1.65,2.53A7.15,7.15,0,0,1,24.32,19.74ZM26.26,8.11a2.77,2.77,0,0,0-2.14,1.16A7.26,7.26,0,0,0,22.71,12a6.68,6.68,0,0,0,3.45-1,2.36,2.36,0,0,0,1.16-1.82,1,1,0,0,0-1.06-1.05Z"/><path class="cls-1" d="M40.34,8.47A3.47,3.47,0,0,0,39,9.19a4.28,4.28,0,0,0-.89,1.34,13.76,13.76,0,0,1,5.45,1.65,3.5,3.5,0,0,1,1.58,3.07,3.53,3.53,0,0,1-.71,2.19,4.57,4.57,0,0,1-1.79,1.4,10.45,10.45,0,0,1-4.14.9q-5.79,0-5.79-2.5a3.8,3.8,0,0,1,1.12-2.52,4.48,4.48,0,0,0,1.73,1.38,5.07,5.07,0,0,0,2.25.57A2.07,2.07,0,0,0,40.09,15a10.9,10.9,0,0,1-5-1.56,3.77,3.77,0,0,1-1.56-3.23,3.81,3.81,0,0,1,1.09-2.77,5.81,5.81,0,0,1,2.7-1.57,14,14,0,0,1,3.64-.44,6.58,6.58,0,0,1,3.34.76,2.21,2.21,0,0,1,1.32,1.87,2,2,0,0,1-.77,1.69,2.65,2.65,0,0,1-1.67.6,3,3,0,0,1-1.65-.48A3.17,3.17,0,0,1,40.34,8.47Z"/><path class="cls-1" d="M50.71,19.74A2.7,2.7,0,0,1,48.63,19,3.21,3.21,0,0,1,48,16.86a52.52,52.52,0,0,1,1.47-7.79L48.18,7.14a9.75,9.75,0,0,1,4.51-1.71,1.78,1.78,0,0,1,1.32.4,1.79,1.79,0,0,1,.39,1.29c0,.23-.28,1.57-.84,4a26.83,26.83,0,0,0-.85,5.27,2.84,2.84,0,0,0,.71,2.2A4.12,4.12,0,0,1,50.71,19.74ZM55.16,1.8a1.82,1.82,0,0,1-.92,1.51,3.57,3.57,0,0,1-2.08.63,3.19,3.19,0,0,1-1.84-.46,1.43,1.43,0,0,1-.68-1.24,1.83,1.83,0,0,1,1-1.64A4,4,0,0,1,52.71,0a3.06,3.06,0,0,1,1.77.46A1.51,1.51,0,0,1,55.16,1.8Z"/><path class="cls-1" d="M66.94,21.44a7.94,7.94,0,0,1-2.71,2.27,7.4,7.4,0,0,1-3.43.84,5.38,5.38,0,0,1-2.88-.68,2.05,2.05,0,0,1-1.09-1.82,4,4,0,0,1,.94-2.4,3.68,3.68,0,0,0,5.71.37,6.17,6.17,0,0,0,1.57-3.44l-.23-.12a4.86,4.86,0,0,1-4.17,2.38,3.55,3.55,0,0,1-3-1.48,6.57,6.57,0,0,1-1.1-4A7.76,7.76,0,0,1,57.84,9,7.63,7.63,0,0,1,62,5.91a9,9,0,0,1,2.8-.48A11.86,11.86,0,0,1,67,5.61a7.34,7.34,0,0,1,.16,1.12A3.82,3.82,0,0,1,69.36,6a1.41,1.41,0,0,1,1.57,1.62,27.31,27.31,0,0,1-.2,3.34c-.14,1.13-.35,2.35-.64,3.65a17.63,17.63,0,0,1-1.25,3.67A17.31,17.31,0,0,1,66.94,21.44Zm-6.08-8.69a2.73,2.73,0,0,0,.65,1.89,2.11,2.11,0,0,0,1.62.72,3,3,0,0,0,2.33-1.23q.39-2,1-6.44a5.62,5.62,0,0,0-4.09,1.49A4.82,4.82,0,0,0,60.86,12.75Z"/><path class="cls-1" d="M76,19.74A2.57,2.57,0,0,1,74,19a2.7,2.7,0,0,1-.64-1.88,25,25,0,0,1,.47-3.8c.31-1.76.64-3.36,1-4.81L73.59,6.71a8.56,8.56,0,0,1,4.19-1.28c1.28,0,1.93.58,1.93,1.74a5.74,5.74,0,0,1-.53,2.33l.23.12c1.63-2.8,3.71-4.19,6.23-4.19A2.45,2.45,0,0,1,88.41,8.2a20.56,20.56,0,0,1-.68,4,20.42,20.42,0,0,0-.68,4.28,3.59,3.59,0,0,0,.49,2.11A3.79,3.79,0,0,1,85,19.74c-1.75,0-2.63-.95-2.63-2.84A15.87,15.87,0,0,1,83,13.33a17,17,0,0,0,.68-3.28c0-.69-.26-1-.78-1a2.74,2.74,0,0,0-1.46.56,7.7,7.7,0,0,0-1.59,1.51,8.43,8.43,0,0,0-1.3,2.41,8.61,8.61,0,0,0-.52,2.95,3.81,3.81,0,0,0,.48,2.17A3.79,3.79,0,0,1,76,19.74Z"/><path class="cls-1" d="M3.23,47.24a2.5,2.5,0,0,1-2.13-.86,4.25,4.25,0,0,1-.64-2.57A85.24,85.24,0,0,1,1.9,34.14L.69,31.69A8.9,8.9,0,0,1,5.4,30c1.18,0,1.77.72,1.77,2.15,0,.47-.3,2.23-.88,5.28a48.32,48.32,0,0,0-.89,5.44,6.37,6.37,0,0,0,.69,3.32A4.76,4.76,0,0,1,3.23,47.24Z"/><path class="cls-1" d="M23.72,37l.23.11q2.44-4.19,6-4.19a2.45,2.45,0,0,1,2.77,2.77,20.33,20.33,0,0,1-.68,4A20.32,20.32,0,0,0,31.37,44a3.62,3.62,0,0,0,.48,2.1,3.72,3.72,0,0,1-2.56,1.12c-1.76,0-2.64-.94-2.64-2.83a15.83,15.83,0,0,1,.69-3.58A16.66,16.66,0,0,0,28,37.53c0-.69-.26-1-.78-1a2.55,2.55,0,0,0-1.43.56,7,7,0,0,0-1.51,1.51A8.17,8.17,0,0,0,23.09,41a9.14,9.14,0,0,0-.49,3,3.75,3.75,0,0,0,.48,2.16,3.72,3.72,0,0,1-2.56,1.12c-1.76,0-2.64-.94-2.64-2.83a15.83,15.83,0,0,1,.69-3.58,16.66,16.66,0,0,0,.69-3.27c0-.69-.26-1-.78-1a2.55,2.55,0,0,0-1.43.56,7,7,0,0,0-1.51,1.51A8.17,8.17,0,0,0,14.32,41a9.14,9.14,0,0,0-.49,3,3.75,3.75,0,0,0,.48,2.16,3.72,3.72,0,0,1-2.56,1.12c-1.76,0-2.64-.94-2.64-2.83a25.33,25.33,0,0,1,.47-3.55c.32-1.76.64-3.36,1-4.81l-1.2-1.83a8.62,8.62,0,0,1,4.2-1.29q1.92,0,1.92,1.74A5.75,5.75,0,0,1,15,37l.23.11q2.45-4.19,6-4.19a3.07,3.07,0,0,1,2,.64A2.43,2.43,0,0,1,24,35.47,5.78,5.78,0,0,1,23.72,37Z"/><path class="cls-1" d="M43.53,43.83l-.23-.12a5.85,5.85,0,0,1-1.78,2.58,4,4,0,0,1-2.57.92,3.78,3.78,0,0,1-3.12-1.46,6.16,6.16,0,0,1-1.16-3.92,8.75,8.75,0,0,1,8.9-8.93,7.86,7.86,0,0,1,1.81.19,6.54,6.54,0,0,1,.16,1.12,4.32,4.32,0,0,1,2.36-.73c1.12,0,1.67.6,1.67,1.8a29.1,29.1,0,0,1-.72,3.87,24.59,24.59,0,0,0-.72,4.79,2.69,2.69,0,0,0,.71,2.15,4,4,0,0,1-2.67,1.12,2.37,2.37,0,0,1-2-.82A4.21,4.21,0,0,1,43.53,43.83ZM39,40.71a2.78,2.78,0,0,0,.47,1.73,1.61,1.61,0,0,0,1.34.61,2.89,2.89,0,0,0,1.72-.64,5.09,5.09,0,0,0,1.42-1.77,43.46,43.46,0,0,1,.89-5.47,5.78,5.78,0,0,0-4.08,1.67A5.22,5.22,0,0,0,39,40.71Z"/><path class="cls-1" d="M62.15,48.92a8,8,0,0,1-2.71,2.27A7.44,7.44,0,0,1,56,52a5.45,5.45,0,0,1-2.89-.67A2.07,2.07,0,0,1,52,49.53,4.12,4.12,0,0,1,53,47.12a3.69,3.69,0,0,0,5.72.38,6.27,6.27,0,0,0,1.57-3.45L60,43.94a4.89,4.89,0,0,1-4.17,2.38,3.53,3.53,0,0,1-3-1.49,6.46,6.46,0,0,1-1.1-4,7.83,7.83,0,0,1,5.45-7.49A8.9,8.9,0,0,1,60,32.9a10.94,10.94,0,0,1,2.24.19,5.39,5.39,0,0,1,.16,1.12,3.85,3.85,0,0,1,2.18-.73,1.42,1.42,0,0,1,1.58,1.62,27.07,27.07,0,0,1-.21,3.33,34.74,34.74,0,0,1-.64,3.65,17.74,17.74,0,0,1-3.15,6.84Zm-6.07-8.69a2.68,2.68,0,0,0,.65,1.89,2.08,2.08,0,0,0,1.61.72,3,3,0,0,0,2.34-1.24c.26-1.35.59-3.5,1-6.43a5.58,5.58,0,0,0-4.08,1.49A4.79,4.79,0,0,0,56.08,40.23Z"/><path class="cls-1" d="M74.87,47.21A6.76,6.76,0,0,1,70,45.59a5.79,5.79,0,0,1-1.7-4.4,7.72,7.72,0,0,1,2.53-6,9.08,9.08,0,0,1,6.35-2.3,4.83,4.83,0,0,1,3.23,1,3.17,3.17,0,0,1,1.1,2.51,4.16,4.16,0,0,1-2.08,3.54c-1.38.94-3.51,1.41-6.39,1.43a4.18,4.18,0,0,0,.66,2.3,1.77,1.77,0,0,0,1.49.84,2.19,2.19,0,0,0,1.54-.6,2.51,2.51,0,0,0,.66-1.95c2.22,0,3.34.53,3.34,1.58A3.24,3.24,0,0,1,79.11,46,7.15,7.15,0,0,1,74.87,47.21Zm1.95-11.63a2.78,2.78,0,0,0-2.14,1.17,7.19,7.19,0,0,0-1.41,2.75,6.68,6.68,0,0,0,3.45-1,2.36,2.36,0,0,0,1.15-1.82,1.05,1.05,0,0,0-.28-.76A1,1,0,0,0,76.82,35.58Z"/><path class="cls-1" d="M86,47.21a2.48,2.48,0,0,1-1.82-.69,2.41,2.41,0,0,1-.7-1.79,2.72,2.72,0,0,1,.85-2,2.66,2.66,0,0,1,2-.87,2.4,2.4,0,0,1,2.52,2.49,2.71,2.71,0,0,1-.85,2A2.66,2.66,0,0,1,86,47.21Z"/><path class="cls-1" d="M6.55,74.69a6.74,6.74,0,0,1-4.84-1.62A5.79,5.79,0,0,1,0,68.67a7.72,7.72,0,0,1,2.53-6,9.1,9.1,0,0,1,6.35-2.3,4.83,4.83,0,0,1,3.23.95,3.13,3.13,0,0,1,1.1,2.51,4.17,4.17,0,0,1-2.07,3.54c-1.38.93-3.52,1.41-6.4,1.43a4.38,4.38,0,0,0,.66,2.3,1.77,1.77,0,0,0,1.49.83,2.21,2.21,0,0,0,1.55-.59,2.56,2.56,0,0,0,.65-1.95c2.23,0,3.34.53,3.34,1.58a3.22,3.22,0,0,1-1.65,2.53A7.06,7.06,0,0,1,6.55,74.69Zm2-11.63a2.8,2.8,0,0,0-2.15,1.17A7.31,7.31,0,0,0,5,67a6.67,6.67,0,0,0,3.44-1,2.36,2.36,0,0,0,1.16-1.82,1.05,1.05,0,0,0-.29-.75A1,1,0,0,0,8.5,63.06Z"/><path class="cls-1" d="M19.12,74.69a3.5,3.5,0,0,1-2.82-1,3.85,3.85,0,0,1-.8-2.49A22.8,22.8,0,0,1,16,67.11a23.2,23.2,0,0,0,.5-3.78A3.1,3.1,0,0,0,16,61.5a8.08,8.08,0,0,1,3.59-1.12,2.06,2.06,0,0,1,1.37.38A1.57,1.57,0,0,1,21.41,62a28.23,28.23,0,0,1-.7,4.16,29,29,0,0,0-.7,4.09,1.67,1.67,0,0,0,.44,1.22,1.51,1.51,0,0,0,1.14.45,2.69,2.69,0,0,0,1.51-.56,4.16,4.16,0,0,0,1.31-1.59c.21-1.24.63-3.19,1.26-5.87l-1.38-1.83a7.66,7.66,0,0,1,4.4-1.67,2.31,2.31,0,0,1,1.48.38,1.43,1.43,0,0,1,.44,1.14,31.39,31.39,0,0,1-.83,4.39,26.37,26.37,0,0,0-.84,5.14,2.74,2.74,0,0,0,.71,2.14A4,4,0,0,1,27,74.69a2.73,2.73,0,0,1-2-.62,2.16,2.16,0,0,1-.62-1.62l-.23-.12A5.07,5.07,0,0,1,22,74.06,6.65,6.65,0,0,1,19.12,74.69Z"/></g></g></svg>